<?xml version="1.0" encoding="UTF-8"?>
<svg version="1.1" xmlns="http://www.w3.org/2000/svg" width="1024" height="1024">
<path d="M0 0 C1.95546753 0.00323273 1.95546753 0.00323273 3.95043945 0.00653076 C23.16420877 0.0574902 42.03448527 0.43792985 61.0625 3.3125 C62.07494781 3.46168884 62.07494781 3.46168884 63.10784912 3.6138916 C106.08328573 9.95302805 147.25113972 21.939634 187.0625 39.3125 C187.8659082 39.66231934 188.66931641 40.01213867 189.49707031 40.37255859 C219.99923662 53.81996569 248.70054766 71.9918284 275.0625 92.3125 C275.62710938 92.745625 276.19171875 93.17875 276.7734375 93.625 C283.5980322 98.87010335 290.25793466 104.20210147 296.5859375 110.046875 C298.65594337 111.94057122 300.75086909 113.79157435 302.8671875 115.6328125 C313.74313448 125.12676109 324.09412036 135.05596366 333.71728516 145.81884766 C335.00783931 147.25180779 336.32182917 148.66355573 337.63671875 150.07421875 C343.72974052 156.62636931 349.28089862 163.49590543 354.72753906 170.58349609 C355.98093144 172.2068547 357.25161312 173.81682247 358.5234375 175.42578125 C405.48345903 235.22762097 435.27486817 307.17830322 446.8125 382.125 C447.11075684 384.05255127 447.11075684 384.05255127 447.41503906 386.01904297 C450.51122911 407.09490955 451.43837941 427.95587352 451.375 449.25 C451.37284485 450.55364502 451.3706897 451.85729004 451.36846924 453.20043945 C451.3175098 472.41420877 450.93707015 491.28448527 448.0625 510.3125 C447.96304077 510.98746521 447.86358154 511.66243042 447.7611084 512.35784912 C441.42197195 555.33328573 429.435366 596.50113972 412.0625 636.3125 C411.71268066 637.1159082 411.36286133 637.91931641 411.00244141 638.74707031 C397.55503431 669.24923662 379.3831716 697.95054766 359.0625 724.3125 C358.629375 724.87710938 358.19625 725.44171875 357.75 726.0234375 C352.50489665 732.8480322 347.17289853 739.50793466 341.328125 745.8359375 C339.43442878 747.90594337 337.58342565 750.00086909 335.7421875 752.1171875 C326.24823891 762.99313448 316.31903634 773.34412036 305.55615234 782.96728516 C304.12319221 784.25783931 302.71144427 785.57182917 301.30078125 786.88671875 C294.74863069 792.97974052 287.87909457 798.53089862 280.79150391 803.97753906 C279.1681453 805.23093144 277.55817753 806.50161312 275.94921875 807.7734375 C216.14737903 854.73345903 144.19669678 884.52486817 69.25 896.0625 C67.32244873 896.36075684 67.32244873 896.36075684 65.35595703 896.66503906 C44.28009045 899.76122911 23.41912648 900.68837941 2.125 900.625 C0.82135498 900.62284485 -0.48229004 900.6206897 -1.82543945 900.61846924 C-21.03920877 900.5675098 -39.90948527 900.18707015 -58.9375 897.3125 C-59.61246521 897.21304077 -60.28743042 897.11358154 -60.98284912 897.0111084 C-103.95828573 890.67197195 -145.12613972 878.685366 -184.9375 861.3125 C-185.7409082 860.96268066 -186.54431641 860.61286133 -187.37207031 860.25244141 C-217.87423662 846.80503431 -246.57554766 828.6331716 -272.9375 808.3125 C-273.78441406 807.6628125 -273.78441406 807.6628125 -274.6484375 807 C-281.4730322 801.75489665 -288.13293466 796.42289853 -294.4609375 790.578125 C-296.53094337 788.68442878 -298.62586909 786.83342565 -300.7421875 784.9921875 C-311.61813448 775.49823891 -321.96912036 765.56903634 -331.59228516 754.80615234 C-332.88283931 753.37319221 -334.19682917 751.96144427 -335.51171875 750.55078125 C-341.60474052 743.99863069 -347.15589862 737.12909457 -352.60253906 730.04150391 C-353.85593144 728.4181453 -355.12661312 726.80817753 -356.3984375 725.19921875 C-403.35845903 665.39737903 -433.14986817 593.44669678 -444.6875 518.5 C-444.98575684 516.57244873 -444.98575684 516.57244873 -445.29003906 514.60595703 C-448.38622911 493.53009045 -449.31337941 472.66912648 -449.25 451.375 C-449.24676727 449.41953247 -449.24676727 449.41953247 -449.24346924 447.42456055 C-449.1925098 428.21079123 -448.81207015 409.34051473 -445.9375 390.3125 C-445.78831116 389.30005219 -445.78831116 389.30005219 -445.6361084 388.26715088 C-439.29697195 345.29171427 -427.310366 304.12386028 -409.9375 264.3125 C-409.58768066 263.5090918 -409.23786133 262.70568359 -408.87744141 261.87792969 C-395.43003431 231.37576338 -377.2581716 202.67445234 -356.9375 176.3125 C-356.504375 175.74789062 -356.07125 175.18328125 -355.625 174.6015625 C-350.37989665 167.7769678 -345.04789853 161.11706534 -339.203125 154.7890625 C-337.30942878 152.71905663 -335.45842565 150.62413091 -333.6171875 148.5078125 C-324.12323891 137.63186552 -314.19403634 127.28087964 -303.43115234 117.65771484 C-301.99819221 116.36716069 -300.58644427 115.05317083 -299.17578125 113.73828125 C-292.62363069 107.64525948 -285.75409457 102.09410138 -278.66650391 96.64746094 C-277.0431453 95.39406856 -275.43317753 94.12338688 -273.82421875 92.8515625 C-214.02237903 45.89154097 -142.07169678 16.10013183 -67.125 4.5625 C-65.83996582 4.36366211 -64.55493164 4.16482422 -63.23095703 3.95996094 C-42.15509045 0.86377089 -21.29412648 -0.06337941 0 0 Z " fill="#FE9B4A" transform="translate(510.9375,61.6875)"/>
<path d="M0 0 C2.46765038 1.95072667 4.85965244 3.96618929 7.2421875 6.01953125 C7.91636719 6.54933594 8.59054687 7.07914063 9.28515625 7.625 C26.6398374 21.65423327 37.06377153 44.30092022 40.2421875 66.01953125 C41.86379622 94.65812412 36.39575167 119.79525539 17.2421875 142.01953125 C16.44748047 143.03080078 16.44748047 143.03080078 15.63671875 144.0625 C3.90043918 158.5807125 -14.77815322 168.81338066 -32.7578125 173.01953125 C-33.82829834 173.28008301 -33.82829834 173.28008301 -34.92041016 173.54589844 C-59.91930894 179.1702747 -86.03675764 174.39454513 -107.61132812 160.85644531 C-111.17443997 158.45432435 -114.47994213 155.79272951 -117.7578125 153.01953125 C-118.9334375 152.08560547 -118.9334375 152.08560547 -120.1328125 151.1328125 C-134.8666634 138.93134222 -145.42604598 120.53614982 -149.7578125 102.01953125 C-150.01836426 100.94904541 -150.01836426 100.94904541 -150.28417969 99.85693359 C-155.90855595 74.85803481 -151.13282638 48.74058611 -137.59472656 27.16601562 C-135.1926056 23.60290378 -132.53101076 20.29740162 -129.7578125 17.01953125 C-129.13519531 16.23578125 -128.51257813 15.45203125 -127.87109375 14.64453125 C-97.18468263 -22.41075765 -38.39767753 -27.57453613 0 0 Z " fill="#00FE1E" transform="translate(567.7578125,738.98046875)"/>
<path d="M0 0 C0.72994675 0.00561951 1.45989349 0.01123901 2.21195984 0.01702881 C2.98117767 0.01513046 3.75039551 0.01323212 4.54292297 0.01127625 C7.09212857 0.0075636 9.64105094 0.01827863 12.19023132 0.02947998 C13.95617642 0.03067151 15.72212215 0.031125 17.48806763 0.03086853 C21.19115662 0.03243419 24.89414904 0.04073076 28.59721375 0.05413818 C33.35462066 0.07114056 38.11192147 0.07495223 42.8693552 0.074193 C46.51606264 0.07446431 50.16274666 0.07993907 53.80944633 0.08719444 C55.56421163 0.09038645 57.31897959 0.09234975 59.07374763 0.09308815 C61.52090646 0.0952454 63.96795049 0.10397582 66.41508484 0.11468506 C67.14705582 0.11423187 67.87902679 0.11377869 68.63317871 0.11331177 C73.63435011 0.14547376 73.63435011 0.14547376 74.74882507 1.25994873 C74.99981431 4.7320368 74.93404603 8.21735493 74.93632507 11.69744873 C74.94857117 12.67778076 74.96081726 13.65811279 74.97343445 14.66815186 C74.97536804 15.60465576 74.97730164 16.54115967 74.97929382 17.50604248 C74.98340271 18.36898926 74.9875116 19.23193604 74.991745 20.12103271 C74.74882507 22.25994873 74.74882507 22.25994873 72.74882507 24.25994873 C70.68605042 24.50045776 70.68605042 24.50045776 68.11552429 24.48699951 C67.15467926 24.48684845 66.19383423 24.48669739 65.20387268 24.48654175 C64.16425385 24.47621918 63.12463501 24.46589661 62.05351257 24.45526123 C60.99093231 24.45243134 59.92835205 24.44960144 58.83357239 24.44668579 C55.43021009 24.43546513 52.02710822 24.4103571 48.62382507 24.38494873 C46.32044345 24.37492137 44.01705771 24.3657951 41.71366882 24.35760498 C36.05863162 24.33551966 30.40374695 24.30202362 24.74882507 24.25994873 C24.74882507 26.56994873 24.74882507 28.87994873 24.74882507 31.25994873 C26.01065613 31.2494751 27.27248718 31.23900146 28.57255554 31.22821045 C33.24277421 31.19207974 37.91298047 31.16907357 42.58329773 31.15008545 C44.60675634 31.14001202 46.63020035 31.12635278 48.65361023 31.10906982 C51.55778096 31.08488026 54.46175968 31.07347924 57.36601257 31.06463623 C58.27438873 31.05431366 59.18276489 31.04399109 60.1186676 31.03335571 C60.95938812 31.03320465 61.80010864 31.03305359 62.66630554 31.03289795 C63.77883194 31.02623611 63.77883194 31.02623611 64.91383362 31.0194397 C66.74882507 31.25994873 66.74882507 31.25994873 68.74882507 33.25994873 C69.00761414 35.10760498 69.00761414 35.10760498 69.01445007 37.32244873 C69.01831726 38.51740967 69.01831726 38.51740967 69.02226257 39.73651123 C69.0145282 40.56924561 69.00679382 41.40197998 68.99882507 42.25994873 C69.01042664 43.50905029 69.01042664 43.50905029 69.02226257 44.78338623 C69.01968445 45.58002686 69.01710632 46.37666748 69.01445007 47.19744873 C69.01219421 47.92834717 69.00993835 48.65924561 69.00761414 49.41229248 C68.74882507 51.25994873 68.74882507 51.25994873 66.74882507 53.25994873 C64.91383362 53.50045776 64.91383362 53.50045776 62.66630554 53.48699951 C61.40522476 53.48677292 61.40522476 53.48677292 60.1186676 53.48654175 C59.21029144 53.47621918 58.30191528 53.46589661 57.36601257 53.45526123 C55.97190659 53.45101639 55.97190659 53.45101639 54.54963684 53.44668579 C51.57423657 53.43546942 48.59913472 53.41036233 45.62382507 53.38494873 C43.6095065 53.37492081 41.59518321 53.36579463 39.58085632 53.35760498 C34.63673051 53.33552534 29.69282842 53.30098566 24.74882507 53.25994873 C24.74882507 55.56994873 24.74882507 57.87994873 24.74882507 60.25994873 C25.35825958 60.25550751 25.96769409 60.25106628 26.59559631 60.24649048 C32.92171389 60.20234466 39.24778793 60.17211886 45.57402039 60.15008545 C47.93699418 60.14000949 50.29995547 60.12634844 52.66288757 60.10906982 C56.05354395 60.08489149 59.44403592 60.07348174 62.83476257 60.06463623 C63.89625519 60.05431366 64.9577478 60.04399109 66.05140686 60.03335571 C67.52270554 60.03312912 67.52270554 60.03312912 69.02372742 60.03289795 C69.88976593 60.02845673 70.75580444 60.0240155 71.64808655 60.0194397 C73.74882507 60.25994873 73.74882507 60.25994873 75.74882507 62.25994873 C75.991745 64.39886475 75.991745 64.39886475 75.97929382 67.01385498 C75.97736023 67.95035889 75.97542664 68.88686279 75.97343445 69.85174561 C75.96118835 70.83207764 75.94894226 71.81240967 75.93632507 72.82244873 C75.93535828 74.29874756 75.93535828 74.29874756 75.93437195 75.80487061 C75.88900039 83.11977341 75.88900039 83.11977341 74.74882507 84.25994873 C72.26467559 84.36560155 69.80818674 84.40673147 67.32328796 84.4052124 C66.54606888 84.40857101 65.76884979 84.41192963 64.96807861 84.41539001 C62.38586348 84.42492834 59.803713 84.42684456 57.22148132 84.42791748 C55.43408175 84.43112806 53.64668245 84.43449197 51.85928345 84.43800354 C48.1073699 84.44400202 44.35547941 84.4458427 40.6035614 84.44525146 C35.78677684 84.4451498 30.97013956 84.45880325 26.15338993 84.47602367 C22.46032019 84.48712121 18.7672863 84.48917137 15.07420158 84.48864174 C13.29792714 84.48982521 11.52165187 84.49426738 9.74539375 84.50197411 C7.26474201 84.5117289 4.78441322 84.50891399 2.30375671 84.50286865 C1.56445923 84.50848816 0.82516174 84.51410767 0.0634613 84.51989746 C-5.02285929 84.48826437 -5.02285929 84.48826437 -7.25117493 82.25994873 C-7.44949009 79.71106749 -7.52395755 77.27084652 -7.50996399 74.72088623 C-7.51346863 73.94352112 -7.51697327 73.16615601 -7.52058411 72.36523438 C-7.52940699 69.78838241 -7.52355038 67.21180363 -7.51679993 64.63494873 C-7.51814642 62.84897814 -7.52008682 61.06300791 -7.52259827 59.27703857 C-7.52555028 55.53107214 -7.52124942 51.78520098 -7.51191711 48.03924561 C-7.50052252 43.2303204 -7.50708158 38.42161842 -7.51906204 33.61270142 C-7.52627856 29.92391265 -7.52399368 26.23517706 -7.51880646 22.54638672 C-7.51746938 20.77290826 -7.51911969 18.99942502 -7.52376556 17.22595215 C-7.52882742 14.75017448 -7.52112555 12.27476163 -7.50996399 9.79901123 C-7.51401245 9.06128479 -7.51806091 8.32355835 -7.52223206 7.56347656 C-7.46980386 1.30710751 -6.26971493 0.03948553 0 0 Z " fill="#FFFDFD" transform="translate(631.2511749267578,575.7400512695313)"/>
<path d="M0 0 C1.65684814 -0.0151062 1.65684814 -0.0151062 3.34716797 -0.03051758 C15.37981887 0.09660694 27.12796926 3.28243705 36.1796875 11.6171875 C39.74354476 15.4943509 43.09354746 19.39523923 44.8125 24.4375 C44.4222561 28.8277439 44.4222561 28.8277439 42.8125 30.4375 C38.80835498 30.72907292 34.80018902 30.75170375 30.78637695 30.78759766 C28.78233531 30.81210458 26.77876858 30.86868252 24.77539062 30.92578125 C17.79516902 30.98914181 13.0929503 30.8444586 7.46118164 26.56835938 C4.88729011 24.80288247 2.61262154 24.87623852 -0.4375 25 C-1.93023438 25.03287109 -1.93023438 25.03287109 -3.453125 25.06640625 C-6.16682933 25.43469469 -7.89632302 25.96084695 -10.1875 27.4375 C-12.47606752 32.01463504 -11.50771843 38.28753641 -11.5625 43.3125 C-11.59988281 44.60542969 -11.63726563 45.89835938 -11.67578125 47.23046875 C-11.68738281 48.47183594 -11.69898438 49.71320312 -11.7109375 50.9921875 C-11.73075684 52.13155762 -11.75057617 53.27092773 -11.77099609 54.44482422 C-11.43711736 57.61731149 -11.43711736 57.61731149 -8.86572266 59.80932617 C-5.44756167 61.88733124 -3.16577824 61.93930407 0.8125 61.875 C2.00875 61.87371094 3.205 61.87242187 4.4375 61.87109375 C8.06908985 61.40453533 9.95044887 60.69136526 12.8125 58.4375 C14.14043606 56.37049345 14.14043606 56.37049345 14.8125 54.4375 C14.10222656 54.44910156 13.39195312 54.46070313 12.66015625 54.47265625 C11.74105469 54.48167969 10.82195313 54.49070312 9.875 54.5 C8.50021484 54.51740234 8.50021484 54.51740234 7.09765625 54.53515625 C4.8125 54.4375 4.8125 54.4375 3.8125 53.4375 C3.68586909 50.61333618 3.62729452 47.82455207 3.625 45 C3.61275391 44.21044922 3.60050781 43.42089844 3.58789062 42.60742188 C3.58262721 40.54942565 3.69043715 38.49187991 3.8125 36.4375 C6.41555892 33.83444108 8.23528539 34.18925022 11.78149414 34.15960693 C12.59610107 34.1636554 13.41070801 34.16770386 14.25 34.171875 C15.08587646 34.16996155 15.92175293 34.1680481 16.78295898 34.16607666 C18.55159811 34.16471464 20.32024723 34.16841224 22.08886719 34.17675781 C24.80165994 34.18745725 27.51379044 34.17686324 30.2265625 34.1640625 C31.9427098 34.16538409 33.65885669 34.16794648 35.375 34.171875 C36.18960693 34.16782654 37.00421387 34.16377808 37.84350586 34.15960693 C43.58258072 34.20758072 43.58258072 34.20758072 45.8125 36.4375 C46.26590318 39.58109535 46.14493339 42.76495936 46.125 45.9375 C46.11936035 46.84862549 46.1137207 47.75975098 46.10791016 48.69848633 C45.92006033 59.08695347 43.80688066 67.46509154 36.8125 75.4375 C24.19237664 87.00594642 9.50931987 87.24433904 -6.74609375 86.8125 C-19.08275691 86.24325239 -29.00452829 83.08584664 -38.1875 74.4375 C-45.14269948 65.99641699 -45.56041035 56.97526757 -45.55810547 46.43505859 C-45.56246144 44.20721968 -45.59878101 41.98139328 -45.63671875 39.75390625 C-45.72708953 28.45795395 -44.0999774 19.58650056 -36.0859375 11.18359375 C-32.99632718 8.34191512 -29.97815398 6.24902001 -26.1875 4.4375 C-25.36765625 4.04433594 -24.5478125 3.65117188 -23.703125 3.24609375 C-15.8905649 0.21608733 -8.30447779 0.04952158 0 0 Z " fill="#FFFDFC" transform="translate(564.1875,574.5625)"/>
<path d="M0 0 C0.89589844 0.43570312 1.79179688 0.87140625 2.71484375 1.3203125 C9.2834087 4.85055446 13.66147421 9.32294843 17 16 C17.04022391 18.3329866 17.04320247 20.66706666 17 23 C12.45606423 25.27196789 6.17609176 24.23015478 1.1875 24.25 C-0.09705078 24.270625 -1.38160156 24.29125 -2.70507812 24.3125 C-3.94322266 24.31765625 -5.18136719 24.3228125 -6.45703125 24.328125 C-8.1582312 24.34214355 -8.1582312 24.34214355 -9.89379883 24.35644531 C-13.35124052 23.95969416 -15.11487559 22.8682962 -18 21 C-21.58228216 20.63881509 -21.58228216 20.63881509 -25.3125 20.8125 C-26.56675781 20.83957031 -27.82101562 20.86664063 -29.11328125 20.89453125 C-30.06589844 20.92933594 -31.01851562 20.96414063 -32 21 C-32 21.99 -32 22.98 -32 24 C-31.17910889 24.13051758 -30.35821777 24.26103516 -29.51245117 24.39550781 C-26.41153064 24.89388952 -23.31240472 25.40206178 -20.21411133 25.91650391 C-18.23573518 26.24206249 -16.25557428 26.55671612 -14.27539062 26.87109375 C-2.71215571 28.80317857 9.62653152 31.1098988 17.37890625 40.70703125 C20.96716549 46.64578783 20.80079045 53.2817896 20 60 C18.20450858 67.09873097 12.86106309 71.94234094 7 76 C-8.6191029 84.00776341 -29.26676819 84.79812912 -46.1875 80.4375 C-54.76168598 77.38841999 -62.05896876 71.73501092 -66.25 63.5625 C-67.12114427 60.58609039 -67.210409 58.08599862 -67 55 C-64.38811995 52.38811995 -57.07324724 53.77013732 -53.3269043 53.75976562 C-51.20646545 53.75008657 -49.08700686 53.71908967 -46.96679688 53.6875 C-45.61719326 53.68096735 -44.2675827 53.67571791 -42.91796875 53.671875 C-41.68844482 53.6625293 -40.4589209 53.65318359 -39.19213867 53.64355469 C-35.69600911 54.03394468 -34.65708297 54.85086302 -32 57 C-29.78552325 57.40803308 -29.78552325 57.40803308 -27.453125 57.29296875 C-26.18662109 57.2784668 -26.18662109 57.2784668 -24.89453125 57.26367188 C-23.58548828 57.2259668 -23.58548828 57.2259668 -22.25 57.1875 C-21.36183594 57.17396484 -20.47367188 57.16042969 -19.55859375 57.14648438 C-17.37177422 57.11121309 -15.18620034 57.06192752 -13 57 C-13 55.68 -13 54.36 -13 53 C-13.65742187 52.89042969 -14.31484375 52.78085937 -14.9921875 52.66796875 C-17.05828549 52.32361909 -19.1232737 51.97258495 -21.1875 51.6171875 C-23.89858655 51.17830259 -26.5900199 50.78924283 -29.3125 50.4453125 C-40.90847708 48.89534277 -53.19517982 46.52826208 -60.8125 36.75 C-64.82722129 30.57350571 -64.57802623 24.15732483 -64 17 C-62.25590588 9.90577932 -56.80864691 5.07418314 -51 1 C-36.45356955 -6.39035339 -14.65810685 -7.57610017 0 0 Z " fill="#FFFDFC" transform="translate(790,431)"/>
<path d="M0 0 C0.66209473 -0.00095673 1.32418945 -0.00191345 2.00634766 -0.00289917 C3.40852961 -0.00358076 4.8107147 -0.00172792 6.21289062 0.00244141 C8.36595713 0.00779004 10.51881502 0.0024958 12.671875 -0.00390625 C14.03125046 -0.00324546 15.3906258 -0.00196429 16.75 0 C18.61785156 0.00169189 18.61785156 0.00169189 20.5234375 0.00341797 C23.375 0.1328125 23.375 0.1328125 24.375 1.1328125 C24.48745621 2.76840015 24.53176722 4.40873285 24.54858398 6.0480957 C24.56207382 7.09620926 24.57556366 8.14432281 24.58946228 9.22419739 C24.59990067 10.36579819 24.61033905 11.50739899 24.62109375 12.68359375 C24.65403488 15.07747758 24.68724648 17.4713577 24.72070312 19.86523438 C24.7681334 23.65744439 24.8125448 27.44963964 24.85180664 31.24194336 C24.89148048 34.88932346 24.94304296 38.53638717 24.99609375 42.18359375 C25.0045079 43.31912186 25.01292206 44.45464996 25.02159119 45.62458801 C25.04655418 47.21094307 25.04655418 47.21094307 25.07202148 48.8293457 C25.08232895 49.75898636 25.09263641 50.68862701 25.10325623 51.6464386 C25.39144257 54.28325706 25.95047745 55.90683923 27.375 58.1328125 C31.8048316 60.66414484 36.4417866 60.79607323 41.37890625 59.6796875 C43.0564627 59.20522709 44.71775131 58.67395493 46.375 58.1328125 C47.29804605 54.97783119 47.52022456 52.11130753 47.56445312 48.8293457 C47.58952942 47.24299065 47.58952942 47.24299065 47.6151123 45.62458801 C47.62868774 44.48905991 47.64226318 43.3535318 47.65625 42.18359375 C47.67465942 41.01523483 47.69306885 39.84687592 47.71203613 38.64311218 C47.79078836 33.63969137 47.8586821 28.63613759 47.92724609 23.63256836 C47.9788073 19.98283893 48.03610232 16.33323128 48.09375 12.68359375 C48.10732544 11.54199295 48.12090088 10.40039215 48.1348877 9.22419739 C48.15996399 7.65202705 48.15996399 7.65202705 48.18554688 6.0480957 C48.20433899 4.65721489 48.20433899 4.65721489 48.22351074 3.23823547 C48.375 1.1328125 48.375 1.1328125 49.375 0.1328125 C51.58150656 0.03268849 53.79122386 0.0020007 56 0 C56.66209473 -0.00095673 57.32418945 -0.00191345 58.00634766 -0.00289917 C59.40852961 -0.00358076 60.8107147 -0.00172792 62.21289062 0.00244141 C64.36595713 0.00779004 66.51881502 0.0024958 68.671875 -0.00390625 C70.03125046 -0.00324546 71.3906258 -0.00196429 72.75 0 C74.61785156 0.00169189 74.61785156 0.00169189 76.5234375 0.00341797 C79.375 0.1328125 79.375 0.1328125 80.375 1.1328125 C80.48952407 2.8231616 80.53461941 4.51826725 80.55200195 6.21240234 C80.57125481 7.8407753 80.57125481 7.8407753 80.59089661 9.50204468 C80.59828354 10.68730743 80.60567047 11.87257019 80.61328125 13.09375 C80.621353 14.30922516 80.62942474 15.52470032 80.63774109 16.77700806 C80.65160974 19.36125248 80.66231937 21.94551543 80.67016602 24.52978516 C80.68727605 28.45641813 80.73112643 32.38218676 80.77539062 36.30859375 C80.78552618 38.82030631 80.79403957 41.33202604 80.80078125 43.84375 C80.81828934 45.00877045 80.83579742 46.17379089 80.85383606 47.37411499 C80.82763833 57.37749925 78.64310656 66.4757225 72.1875 74.3515625 C63.2916132 83.09407194 51.16767546 85.46535874 39.09008789 85.60131836 C38.04973389 85.59108643 37.00937988 85.58085449 35.9375 85.5703125 C34.8436499 85.56201416 33.7497998 85.55371582 32.62280273 85.54516602 C20.21878795 85.28565234 9.77161084 82.78177257 0.375 74.1328125 C-7.34845627 65.06056138 -7.92402504 56.53663651 -7.85546875 45.015625 C-7.85501053 43.76272675 -7.85455231 42.50982849 -7.8540802 41.21896362 C-7.85029889 37.90836688 -7.83732904 34.59796554 -7.82061768 31.28741455 C-7.80976591 28.57422891 -7.81014994 25.86109369 -7.81075573 23.14789009 C-7.81041948 19.91628689 -7.80159318 16.68471519 -7.79296875 13.453125 C-7.79185593 12.23344025 -7.7907431 11.01375549 -7.78959656 9.7571106 C-7.78321671 8.63859711 -7.77683685 7.52008362 -7.77026367 6.36767578 C-7.76645187 5.37841095 -7.76264008 4.38914612 -7.75871277 3.36990356 C-7.47779489 -1.3300132 -3.96116646 0.00358801 0 0 Z " fill="#FFFEFD" transform="translate(628.625,427.8671875)"/>
<path d="M0 0 C1.01578125 -0.01160156 2.0315625 -0.02320313 3.078125 -0.03515625 C14.70157718 0.00954934 26.57822475 3.29300122 35.21484375 11.47265625 C40.2296388 17.12327399 41.12064427 19.8950553 41 27.375 C36.45606423 29.64696789 30.17609176 28.60515478 25.1875 28.625 C23.90294922 28.645625 22.61839844 28.66625 21.29492188 28.6875 C20.05677734 28.69265625 18.81863281 28.6978125 17.54296875 28.703125 C15.8417688 28.71714355 15.8417688 28.71714355 14.10620117 28.73144531 C10.65208604 28.3350759 8.87307393 27.25775033 6 25.375 C2.87646211 25.01487667 2.87646211 25.01487667 -0.3125 25.1875 C-1.38113281 25.21457031 -2.44976562 25.24164063 -3.55078125 25.26953125 C-4.76314453 25.32173828 -4.76314453 25.32173828 -6 25.375 C-6 26.365 -6 27.355 -6 28.375 C-4.93523437 28.55675781 -3.87046875 28.73851562 -2.7734375 28.92578125 C1.06173336 29.58579153 4.89219808 30.26994367 8.72119141 30.96484375 C10.7536971 31.33066864 12.78880537 31.68196558 14.82421875 32.03125 C23.86966685 33.73296924 33.84542513 36.26841961 40.125 43.5 C44.75062723 50.59262842 44.83131175 57.07938384 44 65.375 C42.89874498 68.67364296 41.36958867 70.85477733 39 73.375 C38.44183594 73.98730469 37.88367188 74.59960938 37.30859375 75.23046875 C25.87676532 86.42363688 11.28234413 86.67394942 -3.74169922 86.69189453 C-16.92912535 86.54818654 -28.19881166 84.17618834 -37.84765625 74.52734375 C-41.75221176 69.88433803 -43.30707514 65.47644959 -43 59.375 C-40.38811995 56.76311995 -33.07324724 58.14513732 -29.3269043 58.13476562 C-27.20646545 58.12508657 -25.08700686 58.09408967 -22.96679688 58.0625 C-21.61719326 58.05596735 -20.2675827 58.05071791 -18.91796875 58.046875 C-17.68844482 58.0375293 -16.4589209 58.02818359 -15.19213867 58.01855469 C-11.70719904 58.40769517 -10.632432 59.20549467 -8 61.375 C-6.0155221 61.79670559 -6.0155221 61.79670559 -3.9609375 61.703125 C-3.21585938 61.69796875 -2.47078125 61.6928125 -1.703125 61.6875 C-0.93484375 61.666875 -0.1665625 61.64625 0.625 61.625 C1.40101563 61.61984375 2.17703125 61.6146875 2.9765625 61.609375 C7.12205736 61.63488003 7.12205736 61.63488003 11 60.375 C11 59.715 11 59.055 11 58.375 C4.90024229 56.71784039 -1.18025207 55.30321425 -7.41870117 54.29467773 C-14.67925808 53.11926612 -21.40473277 51.8030485 -28 48.375 C-28.65355469 48.03984375 -29.30710938 47.7046875 -29.98046875 47.359375 C-35.38505602 44.08666118 -38.10427257 39.31494596 -40 33.375 C-41.0757152 25.90646301 -40.05412959 19.89746112 -35.78125 13.5703125 C-27.1418963 2.38714909 -13.37366565 -0.15274491 0 0 Z " fill="#FFFDFC" transform="translate(256,426.625)"/>
<path d="M0 0 C0.85570084 -0.00570007 1.71140167 -0.01140015 2.59303284 -0.01727295 C4.40453859 -0.02672599 6.21606157 -0.03325814 8.02758789 -0.03710938 C10.80189891 -0.0468242 13.57547203 -0.07784791 16.34960938 -0.109375 C18.10806851 -0.11590409 19.86653295 -0.12115493 21.625 -0.125 C22.45631943 -0.1373468 23.28763885 -0.1496936 24.14414978 -0.16241455 C29.90953402 -0.14006359 29.90953402 -0.14006359 31.99188232 1.38247681 C33.76375442 3.70828797 34.5338037 5.91473118 35.46020508 8.68994141 C35.84102737 9.81606842 36.22184967 10.94219543 36.61421204 12.10244751 C37.01738144 13.32418671 37.42055084 14.5459259 37.8359375 15.8046875 C38.26486551 17.08274263 38.69462366 18.36051942 39.12516785 19.63803101 C40.26004927 23.01223969 41.38442977 26.38985411 42.50640869 29.76837158 C43.84857531 33.80419951 45.20210015 37.83622703 46.55482292 41.86852646 C47.64266878 45.11171637 48.72821313 48.35562333 49.80764771 51.60162354 C51.60696308 56.9974977 53.41831479 62.38147126 55.38818359 67.71777344 C55.67868088 68.5079184 55.96917816 69.29806335 56.26847839 70.1121521 C56.78504463 71.50105241 57.31194168 72.88618384 57.85224915 74.26602173 C59.23062314 77.96506307 59.56041073 80.40815233 58.37890625 84.203125 C53.94146086 84.26106091 49.50411236 84.29669967 45.06640625 84.328125 C43.80376953 84.34488281 42.54113281 84.36164063 41.24023438 84.37890625 C39.42749023 84.38857422 39.42749023 84.38857422 37.578125 84.3984375 C36.46268311 84.40891113 35.34724121 84.41938477 34.19799805 84.43017578 C31.37890625 84.203125 31.37890625 84.203125 28.37890625 82.203125 C27.38890625 78.903125 26.39890625 75.603125 25.37890625 72.203125 C15.80890625 72.533125 6.23890625 72.863125 -3.62109375 73.203125 C-5.60109375 78.153125 -5.60109375 78.153125 -7.62109375 83.203125 C-10.37464335 84.5798998 -12.60949784 84.33282189 -15.6875 84.3359375 C-16.89470703 84.33722656 -18.10191406 84.33851563 -19.34570312 84.33984375 C-21.24545898 84.33404297 -21.24545898 84.33404297 -23.18359375 84.328125 C-24.45396484 84.33199219 -25.72433594 84.33585938 -27.03320312 84.33984375 C-28.23912109 84.33855469 -29.44503906 84.33726562 -30.6875 84.3359375 C-31.80068604 84.33480957 -32.91387207 84.33368164 -34.06079102 84.33251953 C-36.62109375 84.203125 -36.62109375 84.203125 -37.62109375 83.203125 C-37.31999746 76.14886915 -34.96029372 69.98446469 -32.52929688 63.4050293 C-31.27425371 60.00595407 -30.04723645 56.59680695 -28.8203125 53.1875 C-28.56148285 52.46949219 -28.3026532 51.75148438 -28.03598022 51.01171875 C-24.35929683 40.75742044 -20.98849955 30.39834768 -17.59448242 20.04785156 C-17.35110641 19.30944031 -17.10773041 18.57102905 -16.85697937 17.8102417 C-16.40506216 16.43880278 -15.95570355 15.06651655 -15.50959778 13.69317627 C-14.09598251 9.40713563 -12.55234561 5.27906933 -10.62109375 1.203125 C-7.31662482 -0.44910947 -3.63355481 0.01853037 0 0 Z " fill="#FFFEFD" transform="translate(450.62109375,575.796875)"/>
<path d="M0 0 C0.85570084 -0.00570007 1.71140167 -0.01140015 2.59303284 -0.01727295 C4.40453859 -0.02672599 6.21606157 -0.03325814 8.02758789 -0.03710938 C10.80189891 -0.0468242 13.57547203 -0.07784791 16.34960938 -0.109375 C18.10806851 -0.11590409 19.86653295 -0.12115493 21.625 -0.125 C22.45631943 -0.1373468 23.28763885 -0.1496936 24.14414978 -0.16241455 C29.90953402 -0.14006359 29.90953402 -0.14006359 31.99188232 1.38247681 C33.76375442 3.70828797 34.5338037 5.91473118 35.46020508 8.68994141 C35.84102737 9.81606842 36.22184967 10.94219543 36.61421204 12.10244751 C37.01738144 13.32418671 37.42055084 14.5459259 37.8359375 15.8046875 C38.26486551 17.08274263 38.69462366 18.36051942 39.12516785 19.63803101 C40.26004927 23.01223969 41.38442977 26.38985411 42.50640869 29.76837158 C43.84857531 33.80419951 45.20210015 37.83622703 46.55482292 41.86852646 C47.64266878 45.11171637 48.72821313 48.35562333 49.80764771 51.60162354 C51.60696308 56.9974977 53.41831479 62.38147126 55.38818359 67.71777344 C55.67868088 68.5079184 55.96917816 69.29806335 56.26847839 70.1121521 C56.78504463 71.50105241 57.31194168 72.88618384 57.85224915 74.26602173 C59.23062314 77.96506307 59.56041073 80.40815233 58.37890625 84.203125 C53.94146086 84.26106091 49.50411236 84.29669967 45.06640625 84.328125 C43.80376953 84.34488281 42.54113281 84.36164063 41.24023438 84.37890625 C39.42749023 84.38857422 39.42749023 84.38857422 37.578125 84.3984375 C36.46268311 84.40891113 35.34724121 84.41938477 34.19799805 84.43017578 C31.37890625 84.203125 31.37890625 84.203125 28.37890625 82.203125 C27.38890625 78.903125 26.39890625 75.603125 25.37890625 72.203125 C15.80890625 72.533125 6.23890625 72.863125 -3.62109375 73.203125 C-5.60109375 78.153125 -5.60109375 78.153125 -7.62109375 83.203125 C-10.37464335 84.5798998 -12.60949784 84.33282189 -15.6875 84.3359375 C-16.89470703 84.33722656 -18.10191406 84.33851563 -19.34570312 84.33984375 C-21.24545898 84.33404297 -21.24545898 84.33404297 -23.18359375 84.328125 C-24.45396484 84.33199219 -25.72433594 84.33585938 -27.03320312 84.33984375 C-28.23912109 84.33855469 -29.44503906 84.33726562 -30.6875 84.3359375 C-31.80068604 84.33480957 -32.91387207 84.33368164 -34.06079102 84.33251953 C-36.62109375 84.203125 -36.62109375 84.203125 -37.62109375 83.203125 C-37.31999746 76.14886915 -34.96029372 69.98446469 -32.52929688 63.4050293 C-31.27425371 60.00595407 -30.04723645 56.59680695 -28.8203125 53.1875 C-28.56148285 52.46949219 -28.3026532 51.75148438 -28.03598022 51.01171875 C-24.35929683 40.75742044 -20.98849955 30.39834768 -17.59448242 20.04785156 C-17.35110641 19.30944031 -17.10773041 18.57102905 -16.85697937 17.8102417 C-16.40506216 16.43880278 -15.95570355 15.06651655 -15.50959778 13.69317627 C-14.09598251 9.40713563 -12.55234561 5.27906933 -10.62109375 1.203125 C-7.31662482 -0.44910947 -3.63355481 0.01853037 0 0 Z " fill="#FFFEFD" transform="translate(450.62109375,427.796875)"/>
<path d="M0 0 C1.12562347 -0.01283524 2.25124695 -0.02567047 3.41098022 -0.03889465 C5.2544957 -0.04997505 5.2544957 -0.04997505 7.13525391 -0.0612793 C8.39512115 -0.06935104 9.6549884 -0.07742279 10.95303345 -0.08573914 C13.63148697 -0.09960808 16.3098163 -0.11061349 18.98828125 -0.11816406 C22.39195558 -0.12914236 25.79496039 -0.16342747 29.1984005 -0.20333576 C32.46895089 -0.23607443 35.73956468 -0.24030749 39.01025391 -0.2487793 C40.21902191 -0.26628738 41.42778992 -0.28379547 42.67318726 -0.30183411 C53.82880093 -0.27362978 63.5054522 2.35990772 71.73681641 10.17700195 C77.70131633 16.57987269 80.3272712 23.1488123 80.04931641 31.97387695 C78.94536924 39.75670447 75.78918548 47.04930038 69.73681641 52.17700195 C60.49302128 58.51218913 49.40490097 58.46386241 38.61181641 58.30200195 C34.69306641 58.26075195 30.77431641 58.21950195 26.73681641 58.17700195 C26.73681641 66.42700195 26.73681641 74.67700195 26.73681641 83.17700195 C23.82629441 84.63226295 21.2612523 84.30686083 18.01416016 84.30981445 C17.35348038 84.31077118 16.6928006 84.31172791 16.01210022 84.31271362 C14.61589462 84.31339411 13.21968585 84.31154896 11.82348633 84.30737305 C9.67929027 84.30201438 7.53530288 84.30732674 5.39111328 84.3137207 C4.03629511 84.31306007 2.68147707 84.3117792 1.32666016 84.30981445 C0.08779053 84.30868652 -1.1510791 84.30755859 -2.42749023 84.30639648 C-5.26318359 84.17700195 -5.26318359 84.17700195 -6.26318359 83.17700195 C-6.3635609 80.62648721 -6.39935847 78.10303017 -6.39257812 75.55200195 C-6.39433044 74.75366943 -6.39608276 73.95533691 -6.39788818 73.1328125 C-6.40230727 70.48085386 -6.39936852 67.82896133 -6.39599609 65.17700195 C-6.39666912 63.34236641 -6.39763913 61.50773094 -6.39889526 59.6730957 C-6.40037231 55.82282667 -6.39821746 51.9725808 -6.39355469 48.12231445 C-6.3878574 43.17543698 -6.39113636 38.22861376 -6.39712715 33.28173828 C-6.40073258 29.49177641 -6.39959427 25.70182749 -6.39699936 21.91186523 C-6.39633004 20.0873209 -6.39715869 18.2627754 -6.39947891 16.43823242 C-6.40200513 13.89279034 -6.39816529 11.34743736 -6.39257812 8.80200195 C-6.39561447 7.6596106 -6.39561447 7.6596106 -6.39871216 6.49414062 C-6.3734989 0.32553578 -6.07476521 0.06010388 0 0 Z " fill="#FFFEFD" transform="translate(329.26318359375,575.822998046875)"/>
<path d="M0 0 C0.8472464 -0.00175232 1.6944928 -0.00350464 2.56741333 -0.00531006 C5.3762617 -0.00972212 8.18504744 -0.0067931 10.99389648 -0.00341797 C12.93920402 -0.00409113 14.88451148 -0.00506126 16.82981873 -0.00631714 C20.90950317 -0.00779318 24.98916575 -0.0056423 29.06884766 -0.00097656 C34.31051909 0.00472445 39.55213937 0.00143877 44.79380894 -0.00454903 C48.81109506 -0.00815392 52.82836896 -0.00701645 56.84565544 -0.00442123 C58.77905216 -0.00375196 60.71244997 -0.00458039 62.64584541 -0.00690079 C65.34205209 -0.00942655 68.03817462 -0.00558798 70.734375 0 C71.54115189 -0.00202423 72.34792877 -0.00404846 73.17915344 -0.00613403 C78.68822695 0.01513124 78.68822695 0.01513124 79.80249023 1.12939453 C80.05457745 4.93527598 79.98771367 8.75364909 79.98999023 12.56689453 C80.00223633 13.64261719 80.01448242 14.71833984 80.02709961 15.82666016 C80.0290332 16.85339844 80.0309668 17.88013672 80.03295898 18.93798828 C80.03706787 19.88472412 80.04117676 20.83145996 80.04541016 21.80688477 C79.80249023 24.12939453 79.80249023 24.12939453 77.80249023 26.12939453 C75.09692383 26.35644531 75.09692383 26.35644531 71.70092773 26.32470703 C70.48920898 26.31826172 69.27749023 26.31181641 68.02905273 26.30517578 C66.75803711 26.28841797 65.48702148 26.27166016 64.17749023 26.25439453 C62.89874023 26.24537109 61.61999023 26.23634766 60.30249023 26.22705078 C57.13563857 26.20341756 53.969156 26.17047082 50.80249023 26.12939453 C50.80471085 26.82652557 50.80693146 27.52365662 50.80921936 28.24191284 C50.82923821 34.80468691 50.84447253 41.36745249 50.85430241 47.93025017 C50.85952588 51.3044248 50.86661384 54.67857424 50.87792969 58.05273438 C50.8900146 61.92985712 50.89572286 65.80694393 50.90014648 69.68408203 C50.90530777 70.8986911 50.91046906 72.11330017 50.91578674 73.36471558 C50.91586227 74.48572662 50.91593781 75.60673767 50.91601562 76.76171875 C50.91823624 77.75211151 50.92045685 78.74250427 50.92274475 79.76290894 C50.80249023 82.12939453 50.80249023 82.12939453 49.80249023 84.12939453 C45.70910372 84.17878568 41.61583225 84.21510954 37.5222168 84.23925781 C36.12928242 84.24932331 34.73636921 84.26297687 33.34350586 84.28027344 C31.34294664 84.30449673 29.34223408 84.31480267 27.34155273 84.32470703 C26.13708496 84.33518066 24.93261719 84.3456543 23.69165039 84.35644531 C20.80249023 84.12939453 20.80249023 84.12939453 18.80249023 82.12939453 C18.5619812 79.76290894 18.5619812 79.76290894 18.57543945 76.76171875 C18.57559052 75.6407077 18.57574158 74.51969666 18.57589722 73.36471558 C18.58621979 72.15010651 18.59654236 70.93549744 18.60717773 69.68408203 C18.61000763 68.44393341 18.61283752 67.20378479 18.61575317 65.92605591 C18.62506849 62.62814821 18.64304134 59.33043481 18.66516113 56.03259277 C18.6856155 52.66774883 18.694754 49.30287647 18.70483398 45.93798828 C18.72692505 39.3350473 18.76042541 32.73223682 18.80249023 26.12939453 C17.59133545 26.14510498 17.59133545 26.14510498 16.35571289 26.16113281 C12.71300341 26.20259284 9.07034348 26.22868891 5.42749023 26.25439453 C4.15647461 26.27115234 2.88545898 26.28791016 1.57592773 26.30517578 C0.36420898 26.31162109 -0.84750977 26.31806641 -2.09594727 26.32470703 C-3.21662598 26.33518066 -4.33730469 26.3456543 -5.49194336 26.35644531 C-8.19750977 26.12939453 -8.19750977 26.12939453 -10.19750977 24.12939453 C-10.42456055 21.79101562 -10.42456055 21.79101562 -10.39282227 18.90283203 C-10.38637695 17.87158203 -10.37993164 16.84033203 -10.37329102 15.77783203 C-10.3565332 14.69759766 -10.33977539 13.61736328 -10.32250977 12.50439453 C-10.31348633 11.41642578 -10.30446289 10.32845703 -10.29516602 9.20751953 C-10.27154385 6.51459301 -10.23860532 3.82210198 -10.19750977 1.12939453 C-6.99499963 -0.47186054 -3.51716758 -0.00884689 0 0 Z " fill="#FFFEFD" transform="translate(324.197509765625,427.87060546875)"/>
<path d="M0 0 C29.04 0 58.08 0 88 0 C89.94345974 3.88691948 89.18480803 8.72514581 89.1875 13 C89.19974609 14.02351563 89.21199219 15.04703125 89.22460938 16.1015625 C89.22654297 17.07867187 89.22847656 18.05578125 89.23046875 19.0625 C89.23457764 19.96097656 89.23868652 20.85945313 89.24291992 21.78515625 C89 24 89 24 87 26 C84.29443359 26.22705078 84.29443359 26.22705078 80.8984375 26.1953125 C79.68671875 26.18886719 78.475 26.18242187 77.2265625 26.17578125 C75.95554687 26.15902344 74.68453125 26.14226562 73.375 26.125 C72.09625 26.11597656 70.8175 26.10695313 69.5 26.09765625 C66.33314833 26.07402303 63.16666576 26.04107629 60 26 C60.00222061 26.69713104 60.00444122 27.39426208 60.00672913 28.11251831 C60.02674798 34.67529238 60.04198229 41.23805796 60.05181217 47.80085564 C60.05703565 51.17503026 60.06412361 54.54917971 60.07543945 57.92333984 C60.08752436 61.80046259 60.09323263 65.6775494 60.09765625 69.5546875 C60.10281754 70.76929657 60.10797882 71.98390564 60.11329651 73.23532104 C60.11337204 74.35633209 60.11344757 75.47734314 60.11352539 76.63232422 C60.115746 77.62271698 60.11796661 78.61310974 60.12025452 79.6335144 C60 82 60 82 59 84 C54.90661348 84.04939115 50.81334202 84.08571501 46.71972656 84.10986328 C45.32679219 84.11992877 43.93387898 84.13358234 42.54101562 84.15087891 C40.5404564 84.1751022 38.53974385 84.18540814 36.5390625 84.1953125 C35.33459473 84.20578613 34.13012695 84.21625977 32.88916016 84.22705078 C30 84 30 84 28 82 C27.75949097 79.6335144 27.75949097 79.6335144 27.77294922 76.63232422 C27.77310028 75.51131317 27.77325134 74.39030212 27.77340698 73.23532104 C27.78372955 72.02071198 27.79405212 70.80610291 27.8046875 69.5546875 C27.8075174 68.31453888 27.81034729 67.07439026 27.81326294 65.79666138 C27.82257826 62.49875367 27.8405511 59.20104028 27.8626709 55.90319824 C27.88312526 52.5383543 27.89226377 49.17348193 27.90234375 45.80859375 C27.92443481 39.20565277 27.95793517 32.60284229 28 26 C26.78884521 26.01571045 26.78884521 26.01571045 25.55322266 26.03173828 C21.91051318 26.07319831 18.26785325 26.09929438 14.625 26.125 C13.35398437 26.14175781 12.08296875 26.15851563 10.7734375 26.17578125 C9.56171875 26.18222656 8.35 26.18867188 7.1015625 26.1953125 C5.98088379 26.20578613 4.86020508 26.21625977 3.70556641 26.22705078 C1 26 1 26 -1 24 C-1.24291992 21.78515625 -1.24291992 21.78515625 -1.23046875 19.0625 C-1.22853516 18.08539063 -1.22660156 17.10828125 -1.22460938 16.1015625 C-1.21236328 15.07804687 -1.20011719 14.05453125 -1.1875 13 C-1.18685547 11.97648437 -1.18621094 10.95296875 -1.18554688 9.8984375 C-1.14032251 2.28064503 -1.14032251 2.28064503 0 0 Z " fill="#FFFEFE" transform="translate(519,428)"/>
<path d="M0 0 C2.93847653 -0.107834 5.87301151 -0.18721916 8.8125 -0.25 C9.64587891 -0.28351562 10.47925781 -0.31703125 11.33789062 -0.3515625 C17.48399657 -0.45029513 17.48399657 -0.45029513 20.0859375 1.8203125 C21.37116654 4.88508943 20.89099958 6.84723226 20 10 C18 12 18 12 16.12060547 12.22705078 C15.37697754 12.21657715 14.63334961 12.20610352 13.8671875 12.1953125 C12.65869141 12.18564453 12.65869141 12.18564453 11.42578125 12.17578125 C10.58402344 12.15902344 9.74226563 12.14226563 8.875 12.125 C7.60076172 12.11146484 7.60076172 12.11146484 6.30078125 12.09765625 C4.20040116 12.07405647 2.10016556 12.03818483 0 12 C0 8.04 0 4.08 0 0 Z " fill="#FF9B4B" transform="translate(356,599)"/>
<path d="M0 0 C1.69059989 2.53589984 2.56297524 4.30376017 3.5078125 7.125 C3.77207031 7.91390625 4.03632813 8.7028125 4.30859375 9.515625 C4.57800781 10.33546875 4.84742188 11.1553125 5.125 12 C5.40214844 12.81984375 5.67929687 13.6396875 5.96484375 14.484375 C6.22652344 15.27328125 6.48820312 16.0621875 6.7578125 16.875 C6.9964502 17.59429688 7.23508789 18.31359375 7.48095703 19.0546875 C8 21 8 21 8 24 C2.72 24 -2.56 24 -8 24 C-5.36 16.08 -2.72 8.16 0 0 Z " fill="#FF9C4E" transform="translate(461,600)"/>
<path d="M0 0 C1.69059989 2.53589984 2.56297524 4.30376017 3.5078125 7.125 C3.77207031 7.91390625 4.03632813 8.7028125 4.30859375 9.515625 C4.57800781 10.33546875 4.84742188 11.1553125 5.125 12 C5.40214844 12.81984375 5.67929687 13.6396875 5.96484375 14.484375 C6.22652344 15.27328125 6.48820312 16.0621875 6.7578125 16.875 C6.9964502 17.59429687 7.23508789 18.31359375 7.48095703 19.0546875 C8 21 8 21 8 24 C2.72 24 -2.56 24 -8 24 C-5.36 16.08 -2.72 8.16 0 0 Z " fill="#FF9C4E" transform="translate(461,452)"/>
</svg>
